<?xml version="1.0" encoding="utf-8"?>
<svg xmlns="http://www.w3.org/2000/svg" height="256" width="256" viewBox="0 0 256 256">
  <g>
    <path id="path1" transform="rotate(0,128,128) translate(92.6316553727009,59) scale(0.267182962245886,0.267182962245886)  " fill="#262626" d="M126.25,181L126.25,447.25 131.6640625,447.107421875 136.53125,446.6796875 140.8515625,445.966796875 144.625,444.96875 147.8515625,443.685546875 150.53125,442.1171875 152.6640625,440.263671875 154.25,438.125 155.48046875,435.353515625 156.546875,431.6015625 157.44921875,426.869140625 158.1875,421.15625 158.76171875,414.462890625 159.171875,406.7890625 159.41796875,398.134765625 159.5,388.5 159.5,231.25 159.47265625,224.68359375 159.390625,218.734390258789 159.25390625,213.402359008789 159.0625,208.687515258789 158.81640625,204.589859008789 158.515625,201.109390258789 158.16015625,198.24609375 157.75,196 156.59375,192.3828125 154.875,189.281265258789 152.59375,186.695327758789 149.75,184.625 145.9375,183.0390625 140.75,181.90625 134.1875,181.2265625 126.25,181z M20.9999980926514,111.75L99.75,111.75 109.08837890625,111.77734375 118.041015625,111.859375 126.60791015625,111.99609375 134.7890625,112.1875 142.58447265625,112.43359375 149.994140625,112.734375 157.01806640625,113.08984375 163.65625,113.5 169.90869140625,113.964851379395 175.775390625,114.484382629395 181.25634765625,115.058601379395 186.3515625,115.687507629395 191.06103515625,116.37109375 195.384765625,117.109375 199.32275390625,117.90234375 202.875,118.75 209.392578125,120.640632629395 215.5078125,122.812515258789 221.220703125,125.265647888184 226.53125,128.000030517578 231.439453125,131.015655517578 235.9453125,134.312515258789 240.048828125,137.890640258789 243.75,141.75 250.09375,149.976577758789 255.125,158.656265258789 258.84375,167.789077758789 261.25,177.375 262.0703125,182.873046875 262.78125,189.5546875 263.3828125,197.419937133789 263.875,206.468765258789 264.2578125,216.701187133789 264.53125,228.117202758789 264.6953125,240.716796875 264.75,254.5 264.75,396.25 264.669921875,409.310546875 264.4296875,421.2421875 264.029296875,432.044921875 263.46875,441.71875 262.748046875,450.263671875 261.8671875,457.6796875 260.826171875,463.966796875 259.625,469.125 256.5859375,477.8125 252.59375,485.5 247.6484375,492.1875 241.75,497.875 235,502.671875 227.5,506.6875 219.25,509.921875 210.25,512.375 205.265625,513.341796875 199.6875,514.1796875 193.515625,514.888671875 186.75,515.46875 179.390625,515.919921875 171.4375,516.2421875 162.890625,516.435546875 153.75,516.5 20.9999980926514,516.5 20.9999980926514,111.75z" />
  </g>
</svg>

