<?xml version="1.0" encoding="utf-8"?>
<svg xmlns="http://www.w3.org/2000/svg" height="256" width="256" viewBox="0 0 256 256">
  <g>
    <path id="path1" transform="rotate(0,128,128) translate(92.8487415295257,59) scale(0.267182962245886,0.267182962245886)  " fill="#262626" d="M131.125,202L129.161483764648,216.287567138672 127.291442871094,230.086791992188 125.514877319336,243.397689819336 123.831787109375,256.22021484375 122.242164611816,268.554412841797 120.746025085449,280.400268554688 119.343360900879,291.757781982422 118.034172058105,302.626953125 116.818458557129,313.007781982422 115.696220397949,322.900268554688 114.667457580566,332.304412841797 113.73217010498,341.22021484375 112.890357971191,349.647674560547 112.142028808594,357.586791992188 111.487167358398,365.037567138672 110.92578125,372 147.15625,372 145.158325195313,354.30126953125 143.15869140625,335.587890625 141.157348632813,315.85986328125 139.154296875,295.1171875 137.149536132813,273.35986328125 135.14306640625,250.587890625 133.134887695313,226.80126953125 131.125,202z M50.8125,111.75L202.9375,111.75 263.125,516.5 155.5625,516.5 149.9140625,443.75 112.265625,443.75 105.9375,516.5 -2.87500143051147,516.5 50.8125,111.75z" />
  </g>
</svg>

