<?xml version="1.0" encoding="utf-8"?>
<svg xmlns="http://www.w3.org/2000/svg" height="256" width="256" viewBox="0 0 256 256">
  <g>
    <path id="path1" transform="rotate(0,128,128) translate(94.7814285714286,59) scale(0.262857142857143,0.262857142857143)  " fill="#262626" d="M126.5,103.25L136.560546875,103.457038879395 146.2421875,104.078140258789 155.544921875,105.113296508789 164.46875,106.562515258789 173.013671875,108.425796508789 181.1796875,110.703140258789 188.966796875,113.394538879395 196.375,116.5 203.2890625,119.919921875 209.59375,123.554695129395 215.2890625,127.404304504395 220.375,131.46875 224.8515625,135.748046875 228.71875,140.2421875 231.9765625,144.951171875 234.625,149.875 236.822265625,155.345703125 238.7265625,161.695327758789 240.337890625,168.923843383789 241.65625,177.031265258789 242.681640625,186.017593383789 243.4140625,195.8828125 243.853515625,206.626953125 244,218.25 244,234.25 146.25,234.25 146.25,204.25 146.19140625,199.23828125 146.015625,194.703125 145.72265625,190.64453125 145.3125,187.0625 144.78515625,183.95703125 144.140625,181.328125 143.37890625,179.17578125 142.5,177.5 140.3125,174.984390258789 137.5,173.1875 134.0625,172.109375 130,171.75 125.5390625,172.234741210938 121.65625,173.68896484375 118.3515625,176.112670898438 115.625,179.505859375 113.4921875,183.884170532227 111.96875,189.26318359375 111.0546875,195.642944335938 110.75,203.0234375 111.092529296875,212.529052734375 112.1201171875,220.7841796875 113.832763671875,227.788818359375 116.23046875,233.54296875 117.840209960938,236.173522949219 120.05224609375,238.936294555664 122.866577148438,241.831253051758 126.283203125,244.858413696289 130.302124023438,248.017776489258 134.92333984375,251.309326171875 140.146850585938,254.733093261719 145.97265625,258.2890625 154.554092407227,263.444488525391 162.729064941406,268.483032226563 170.497573852539,273.404693603516 177.859619140625,278.20947265625 184.815200805664,282.897369384766 191.364318847656,287.468383789063 197.506973266602,291.922515869141 203.2431640625,296.259765625 208.572891235352,300.480133056641 213.496154785156,304.583618164063 218.012954711914,308.570220947266 222.123291015625,312.43994140625 225.827163696289,316.192779541016 229.124572753906,319.828735351563 232.015518188477,323.347808837891 234.5,326.75 238.77734375,333.94921875 242.484375,342.171875 245.621078491211,351.41796875 248.187484741211,361.6875 250.183578491211,372.98046875 251.609359741211,385.296875 252.46484375,398.63671875 252.75,413 252.591796875,423.45703125 252.117172241211,433.203125 251.326156616211,442.23828125 250.218734741211,450.5625 248.794906616211,458.17578125 247.054672241211,465.078125 244.998046875,471.26953125 242.625,476.75 239.798828125,481.771484375 236.382797241211,486.5859375 232.376937866211,491.193359375 227.781234741211,495.59375 222.595687866211,499.787109375 216.820297241211,503.7734375 210.455078125,507.552734375 203.5,511.125 196.1015625,514.376953125 188.40625,517.1953125 180.4140625,519.580078125 172.125,521.53125 163.5390625,523.048828125 154.65625,524.1328125 145.4765625,524.783203125 136,525 125.630859375,524.75 115.6484375,524 106.052734375,522.75 96.84375,521 88.021484375,518.75 79.5859375,516 71.537109375,512.75 63.8749961853027,509 56.728515625,504.86328125 50.2265625,500.453125 44.369140625,495.76953125 39.15625,490.8125 34.587890625,485.58203125 30.6640625,480.078125 27.384765625,474.30078125 24.75,468.25 22.58203125,461.73828125 20.703125,454.578125 19.11328125,446.76953125 17.8125,438.3125 16.80078125,429.20703125 16.078125,419.453125 15.6445322036743,409.05078125 15.5000009536743,398 15.5000009536743,371.5 113.25,371.5 113.25,420.75 113.314453125,426.18359375 113.507804870605,431.109375 113.830070495605,435.52734375 114.281242370605,439.4375 114.861320495605,442.83984375 115.570304870605,445.734375 116.408203125,448.12109375 117.375,450 119.835929870605,452.84375 123.093742370605,454.875 127.148429870605,456.09375 132,456.5 136.9140625,455.984375 141.15625,454.4375 144.7265625,451.859375 147.625,448.25 149.8671875,443.625 151.46875,438 152.4296875,431.375 152.75,423.75 152.59765625,415.19921875 152.140625,407.421875 151.37890625,400.41796875 150.3125,394.1875 148.94140625,388.73046875 147.265625,384.046875 145.28515625,380.13671875 143,377 140.04296875,374.01953125 136.171875,370.578125 131.38671875,366.67578125 125.6875,362.3125 119.07421875,357.48828125 111.546875,352.203125 103.10546875,346.45703125 93.75,340.25 84.3515625,333.97265625 75.78125,328.140625 68.0390625,322.75390625 61.125,317.8125 55.0390625,313.31640625 49.78125,309.265625 45.3515625,305.66015625 41.75,302.5 35.6484375,296.0625 30.09375,288.5 25.0859375,279.8125 20.625,270 16.9609375,258.90625 14.34375,246.375 12.7734375,232.40625 12.2500009536743,217 12.4355478286743,205.765625 12.9921875,195.3125 13.919921875,185.640625 15.21875,176.75 16.888671875,168.640625 18.9296875,161.3125 21.341796875,154.765625 24.125,149 27.322265625,143.771484375 30.9765605926514,138.835952758789 35.087890625,134.193374633789 39.65625,129.843765258789 44.6816368103027,125.787117004395 50.1640586853027,122.023445129395 56.1035118103027,118.552734375 62.4999961853027,115.375 69.296875,112.533210754395 76.4375,110.070327758789 83.921875,107.986343383789 91.75,106.281265258789 99.921875,104.955093383789 108.4375,104.007827758789 117.296875,103.439460754395 126.5,103.25z" />
  </g>
</svg>

